<?xml version="1.0" encoding="UTF-8"?>
<svg width="752pt" height="752pt" version="1.1" viewBox="0 0 752 752" xmlns="http://www.w3.org/2000/svg">
 <path d="m475.02 301.41c0 55.316-45.297 100.16-101.17 100.16-55.879 0-101.18-44.844-101.18-100.16 0-55.32 45.297-100.16 101.18-100.16 55.875 0 101.17 44.844 101.17 100.16zm38.75 0c0 76.504-62.645 138.52-139.92 138.52s-139.92-62.016-139.92-138.52c0-76.504 62.645-138.52 139.92-138.52s139.92 62.02 139.92 138.52zm-350.88 268.52c0-76.566 41.195-143.61 102.84-180.58 8.6797 10.445 18.871 19.609 30.25 27.168-56.043 28.707-94.348 86.629-94.348 153.41 0 10.594-8.6719 19.18-19.371 19.18-10.703 0-19.375-8.5859-19.375-19.18zm387.48 0c0-67.758-39.434-126.39-96.82-154.65 11.25-7.7305 21.297-17.055 29.812-27.641 63.258 36.594 105.75 104.53 105.75 182.29 0 10.594-8.6758 19.18-19.375 19.18s-19.371-8.5859-19.371-19.18z" fill="#fff" fill-rule="evenodd"/>
</svg>
