
<svg width="731px" height="901px" viewBox="0 0 731 901" version="1.1" xmlns="http://www.w3.org/2000/svg" xmlns:xlink="http://www.w3.org/1999/xlink">
    <defs>
        <linearGradient x1="55.1798973%" y1="3.39845739%" x2="45.5062817%" y2="75.3127722%" id="linearGradient-d1mygezk70-1">
            <stop stop-color="#000000" offset="0%"></stop>
            <stop stop-color="#000000" stop-opacity="0" offset="100%"></stop>
        </linearGradient>
        <linearGradient x1="55.1792864%" y1="3.39845739%" x2="45.5068117%" y2="75.3127722%" id="linearGradient-d1mygezk70-2">
            <stop stop-color="#000000" offset="0%"></stop>
            <stop stop-color="#000000" stop-opacity="0" offset="100%"></stop>
        </linearGradient>
        <linearGradient x1="60.7985699%" y1="3.39845739%" x2="40.6319125%" y2="75.3127722%" id="linearGradient-d1mygezk70-3">
            <stop stop-color="#000000" offset="0%"></stop>
            <stop stop-color="#FFFFFF" stop-opacity="0" offset="100%"></stop>
        </linearGradient>
        <linearGradient x1="63.4249424%" y1="35.5256717%" x2="29.8248945%" y2="71.7099451%" id="linearGradient-d1mygezk70-4">
            <stop stop-color="#000000" offset="0%"></stop>
            <stop stop-color="#FFFFFF" stop-opacity="0" offset="100%"></stop>
        </linearGradient>
    </defs>
    <g id="Illustrations" stroke="none" stroke-width="1" fill="none" fill-rule="evenodd">
        <g id="#2" transform="translate(-210.000000, -125.000000)">
            <g id="Illustration" transform="translate(210.800000, 125.962857)">
                <path d="M729.7,452.537143 C717,445.137143 707.8,444.937143 702.1,451.937143 C696.4,458.837143 693.6,470.537143 693.6,487.037143 L693.6,575.937143 C693.6,592.837143 692,606.837143 688.9,617.937143 C685.8,629.437143 680.5,637.637143 673.2,642.437143 C666.1,647.337143 656.5,648.637143 644.3,646.337143 C632.4,644.137143 617.5,637.937143 599.7,627.637143 L591.2,622.737143 L591.2,552.737143 L601.8,558.837143 C614.5,566.237143 623,567.137143 627.3,561.737143 C631.8,556.537143 634.1,545.637143 634.1,529.137143 L634.1,450.837143 C634.1,430.437143 636.1,414.337143 640.1,402.437143 C644.1,390.537143 652,383.037143 663.9,379.637143 C652,362.537143 644.1,345.837143 640.1,329.437143 C636.1,313.037143 634.2,294.637143 634.2,274.237143 L634.2,195.937143 C634.2,179.437143 631.9,166.037143 627.4,155.537143 C623.2,145.237143 614.7,136.437143 601.9,129.037143 L591.3,122.937143 L591.3,52.9371429 L599.8,57.8371429 C617.6,68.1371429 632.5,79.0371429 644.4,90.6371429 C656.6,102.337143 666.2,114.837143 673.3,127.937143 C680.7,141.237143 685.9,155.437143 689,170.537143 C692.1,185.237143 693.7,201.137143 693.7,217.937143 L693.7,306.837143 C693.7,323.337143 696.5,338.337143 702.2,351.737143 C707.9,365.237143 717.1,375.637143 729.8,382.937143 L729.7,452.537143 Z" id="Path" fill="url(#linearGradient-d1mygezk70-1)" fill-rule="nonzero" opacity="0.07"></path>
                <path d="M407.2,195.037143 C419.9,202.437143 429.1,202.637143 434.8,195.637143 C440.5,188.737143 443.3,177.037143 443.3,160.537143 L443.3,71.6371429 C443.3,54.7371429 444.9,40.7371429 448,29.6371429 C451.1,18.1371429 456.2,9.83714286 463.3,4.93714286 C470.7,0.137142857 480.3,-1.16285714 492.2,1.03714286 C504.4,3.33714286 519.4,9.63714286 537.2,19.9371429 L545.7,24.8371429 L545.7,94.8371429 L535.1,88.7371429 C522.4,81.3371429 513.7,80.3371429 509.2,85.5371429 C505,90.9371429 502.8,101.837143 502.8,118.337143 L502.8,196.637143 C502.8,217.037143 500.8,233.137143 496.8,245.037143 C492.8,256.837143 484.9,264.437143 473,267.837143 C484.9,284.937143 492.8,301.637143 496.8,318.037143 C500.8,334.437143 502.7,352.837143 502.7,373.237143 L502.7,451.537143 C502.7,468.037143 504.8,481.437143 509.1,491.737143 C513.6,502.237143 522.3,511.137143 535,518.437143 L545.6,524.537143 L545.6,594.537143 L537.1,589.637143 C519.3,579.337143 504.3,568.337143 492.1,556.637143 C480.2,545.037143 470.6,532.637143 463.2,519.337143 C456.1,506.237143 451,492.137143 447.9,476.937143 C444.8,462.237143 443.2,446.337143 443.2,429.537143 L443.2,340.637143 C443.2,324.137143 440.4,309.137143 434.7,295.737143 C429,282.237143 419.8,271.837143 407.1,264.537143 L407.2,195.037143 Z" id="Path" fill="url(#linearGradient-d1mygezk70-2)" fill-rule="nonzero" opacity="0.07"></path>
                <path d="M689.7,482.537143 C677,475.137143 667.8,474.937143 662.1,481.937143 C656.4,488.837143 653.6,500.537143 653.6,517.037143 L653.6,605.937143 C653.6,622.837143 652,636.837143 648.9,647.937143 C645.8,659.437143 640.5,667.637143 633.2,672.437143 C626.1,677.337143 616.5,678.637143 604.3,676.337143 C592.4,674.137143 577.5,667.937143 559.7,657.637143 L551.2,652.737143 L551.2,582.737143 L561.8,588.837143 C574.5,596.237143 583,597.137143 587.3,591.737143 C591.8,586.537143 594.1,575.637143 594.1,559.137143 L594.1,480.837143 C594.1,460.437143 596.1,444.337143 600.1,432.437143 C604.1,420.537143 612,413.037143 623.9,409.637143 C612,392.537143 604.1,375.837143 600.1,359.437143 C596.1,343.037143 594.2,324.637143 594.2,304.237143 L594.2,225.937143 C594.2,209.437143 591.9,196.037143 587.4,185.537143 C583.2,175.237143 574.7,166.437143 561.9,159.037143 L551.3,152.937143 L551.3,82.9371429 L559.8,87.8371429 C577.6,98.1371429 592.5,109.037143 604.4,120.637143 C616.6,132.337143 626.2,144.837143 633.3,157.937143 C640.7,171.237143 645.9,185.437143 649,200.537143 C652.1,215.237143 653.7,231.137143 653.7,247.937143 L653.7,336.837143 C653.7,353.337143 656.5,368.337143 662.2,381.737143 C667.9,395.237143 677.1,405.637143 689.8,412.937143 L689.7,482.537143 Z" id="Path" fill="url(#linearGradient-d1mygezk70-1)" fill-rule="nonzero" opacity="0.4"></path>
                <path d="M367.2,225.037143 C379.9,232.437143 389.1,232.637143 394.8,225.637143 C400.5,218.737143 403.3,207.037143 403.3,190.537143 L403.3,101.637143 C403.3,84.7371429 404.9,70.7371429 408,59.6371429 C411.1,48.1371429 416.2,39.8371429 423.3,34.9371429 C430.7,30.1371429 440.3,28.8371429 452.2,31.0371429 C464.4,33.3371429 479.4,39.6371429 497.2,49.9371429 L505.7,54.8371429 L505.7,124.837143 L495.1,118.737143 C482.4,111.337143 473.7,110.337143 469.2,115.537143 C465,120.937143 462.8,131.837143 462.8,148.337143 L462.8,226.637143 C462.8,247.037143 460.8,263.137143 456.8,275.037143 C452.8,286.837143 444.9,294.437143 433,297.837143 C444.9,314.937143 452.8,331.637143 456.8,348.037143 C460.8,364.437143 462.7,382.837143 462.7,403.237143 L462.7,481.537143 C462.7,498.037143 464.8,511.437143 469.1,521.737143 C473.6,532.237143 482.3,541.137143 495,548.437143 L505.6,554.537143 L505.6,624.537143 L497.1,619.637143 C479.3,609.337143 464.3,598.337143 452.1,586.637143 C440.2,575.037143 430.6,562.637143 423.2,549.337143 C416.1,536.237143 411,522.137143 407.9,506.937143 C404.8,492.237143 403.2,476.337143 403.2,459.537143 L403.2,370.637143 C403.2,354.137143 400.4,339.137143 394.7,325.737143 C389,312.237143 379.8,301.837143 367.1,294.537143 L367.2,225.037143 Z" id="Path" fill="url(#linearGradient-d1mygezk70-2)" fill-rule="nonzero" opacity="0.4"></path>
                <polygon id="Path" fill="url(#linearGradient-d1mygezk70-3)" fill-rule="nonzero" opacity="0.15" points="145.2 12.2371429 316.1 110.937143 316 520.237143 145.1 421.537143"></polygon>
                <polygon id="Path" fill="#F43F5E" points="113.1 75.1371429 249 153.637143 249 191.337143 113.1 112.837143"></polygon>
                <polygon id="Path" fill="#000000" fill-rule="nonzero" opacity="0.15" points="166.3 238.737143 296.9 314.137143 296.9 372.737143 166.3 297.337143"></polygon>
                <polygon id="Path" fill="#000000" fill-rule="nonzero" opacity="0.15" points="166.2 167.837143 297 243.337143 297 256.937143 166.2 181.537143"></polygon>
                <polygon id="Path" fill="#000000" fill-rule="nonzero" opacity="0.15" points="166.2 194.437143 279.3 259.737143 279.3 273.337143 166.2 208.037143"></polygon>
                <polygon id="Path" fill="#000000" fill-rule="nonzero" opacity="0.2" points="145.2 12.2371429 316.1 110.937143 316.1 165.837143 145.2 67.1371429"></polygon>
                <path d="M187.9,64.6371429 C187.9,72.9371429 183,76.8371429 177,73.4371429 C171,69.9371429 166.2,60.4371429 166.2,52.1371429 C166.2,43.8371429 171.1,39.9371429 177.1,43.3371429 C183,46.8371429 187.9,56.3371429 187.9,64.6371429 Z" id="Path" fill="#000000" fill-rule="nonzero" opacity="0.2"></path>
                <polygon id="Path" fill="#000000" fill-rule="nonzero" opacity="0.15" points="355.2 391.737143 526.1 490.437143 526 899.737143 355.1 801.037143"></polygon>
                <polygon id="Path" fill="#22C55E" points="420.3 510.837143 556.2 589.237143 556.2 626.837143 420.2 548.437143"></polygon>
                <polygon id="Path" fill="#000000" fill-rule="nonzero" opacity="0.15" points="376.3 549.737143 507 625.237143 507 683.737143 376.3 608.237143"></polygon>
                <polygon id="Path" fill="#000000" fill-rule="nonzero" opacity="0.15" points="376.1 633.337143 506.9 708.837143 506.9 722.437143 376.1 647.037143"></polygon>
                <polygon id="Path" fill="#000000" fill-rule="nonzero" opacity="0.15" points="376.1 657.937143 489.2 723.237143 489.2 736.837143 376.1 671.537143"></polygon>
                <polygon id="Path" fill="#000000" fill-rule="nonzero" opacity="0.2" points="355.2 391.737143 526.1 490.437143 526.1 545.337143 355.2 446.637143"></polygon>
                <path d="M397.9,444.237143 C397.9,452.537143 393,456.437143 387,453.037143 C381,449.537143 376.2,440.037143 376.2,431.737143 C376.2,423.437143 381.1,419.537143 387.1,422.937143 C393,426.337143 397.9,435.937143 397.9,444.237143 Z" id="Path" fill="#000000" fill-rule="nonzero" opacity="0.2"></path>
                <polygon id="Path" fill="#000000" fill-rule="nonzero" opacity="0.3" points="325.6 448.437143 28.1 276.737143 28.2 431.837143 299.5 588.437143 325.8 627.337143 325.713141 549.641839"></polygon>
                <polygon id="Path" fill="#FFFFFF" fill-rule="nonzero" opacity="0.15" points="249.1 442.037143 183.9 404.437143 183.9 418.037143 249.1 455.637143 249.1 442.037143"></polygon>
                <polygon id="Path" fill="#FFFFFF" fill-rule="nonzero" opacity="0.15" points="249.1 469.337143 87.7 376.137143 87.7 389.737143 249.2 482.937143"></polygon>
                <polygon id="Path" fill="#FFFFFF" fill-rule="nonzero" opacity="0.15" points="249.2 496.637143 54.3 384.137143 54.3 397.737143 249.2 510.237143"></polygon>
                <path d="M265.2,465.537143 C265.2,478.337143 272.8,493.037143 282.1,498.437143 C291.4,503.837143 299,497.837143 299,485.037143 C299,472.237143 291.4,457.537143 282.1,452.137143 C272.7,446.737143 265.2,452.737143 265.2,465.537143 Z" id="Path" fill="#22C55E"></path>
                <path d="M57.5,167.837143 L18.1,145.037143 L18.1,131.737143 L57.5,154.537143 C60.7,156.437143 65.4,160.137143 69.4,165.937143 C73.7,172.137143 76.8,179.937143 76.8,188.437143 C76.8,197.837143 74.4,203.137143 69.9,204.737143 C65.6,206.137143 60.6,203.737143 57.5,201.937143 L41.3,192.537143 L41.2,192.437143 C39.8,191.637143 37.6,190.837143 35.9,191.337143 C34.5,191.737143 32.8,193.237143 32.8,198.437143 C32.8,203.637143 34.4,206.837143 35.8,208.737143 C37.5,211.137143 39.7,212.837143 41.1,213.537143 L41.3,213.637143 L90.9,242.237143 L90.9,255.537143 L41.6,227.037143 C38.2,225.237143 33.3,221.537143 29.1,215.637143 C24.5,209.137143 21.3,200.937143 21.3,191.737143 C21.3,182.637143 24.5,177.937143 29,176.637143 C33.2,175.437143 38.1,177.237143 41.5,179.237143 L57.6,188.537143 C59.9,189.837143 61.7,190.437143 62.8,190.037143 C63.7,189.737143 65.3,188.437143 65.3,181.737143 C65.3,177.337143 63.9,174.537143 62.5,172.537143 C60.9,170.337143 58.8,168.537143 57.5,167.837143 Z" id="Path" fill="#000000" fill-rule="nonzero" opacity="0.15"></path>
                <path d="M29.8,146.437143 C29.8,157.837143 23.1,163.137143 14.9,158.437143 C6.7,153.737143 0,140.637143 0,129.237143 C0,117.837143 6.7,112.537143 14.9,117.237143 C23.1,122.037143 29.8,135.137143 29.8,146.437143 Z" id="Path" fill="#F43F5E"></path>
                <path d="M108.8,256.437143 C108.8,267.837143 102.1,273.137143 93.9,268.437143 C85.7,263.737143 79,250.637143 79,239.237143 C79,227.837143 85.7,222.537143 93.9,227.237143 C102.1,232.037143 108.8,245.137143 108.8,256.437143 Z" id="Path" fill="#F43F5E"></path>
                <path d="M215.1,604.137143 C221.1,607.637143 225.9,615.937143 225.9,622.937143 L225.9,653.437143 L246.1,665.037143 C252.1,668.537143 256.9,676.837143 256.9,683.837143 C256.9,690.737143 252,693.537143 246.1,690.137143 L225.9,678.537143 L225.9,709.037143 C225.9,715.937143 221,718.737143 215.1,715.337143 C209.1,711.837143 204.3,703.537143 204.3,696.537143 L204.3,666.037143 L184.1,654.437143 C178.1,650.937143 173.3,642.637143 173.3,635.637143 C173.3,628.737143 178.2,625.937143 184.1,629.337143 L204.3,640.937143 L204.3,610.437143 C204.3,603.437143 209.1,600.637143 215.1,604.137143 Z" id="Path" fill="url(#linearGradient-d1mygezk70-4)" fill-rule="nonzero" opacity="0.2"></path>
            </g>
        </g>
    </g>
</svg>